HIERARCHY
ROOT 02_10
{
	OFFSET 0.000000 0.000000 0.000000
	CHANNELS 6 Xposition Yposition Zposition Xrotation Yrotation Zrotation
	JOINT hip
	{
		OFFSET 55.199490 85.152702 3.021367
		CHANNELS 3 Xrotation Yrotation Zrotation
		JOINT abdomen
		{
			OFFSET 0.000000 20.688103 -0.731517
			CHANNELS 3 Xrotation Yrotation Zrotation
			JOINT chest
			{
				OFFSET -0.092266 11.703918 -0.488221
				CHANNELS 3 Xrotation Yrotation Zrotation
				JOINT neck
				{
					OFFSET -0.224262 22.188004 -2.197183
					CHANNELS 3 Xrotation Yrotation Zrotation
					JOINT head
					{
						OFFSET -0.314137 7.068665 1.218508
						CHANNELS 3 Xrotation Yrotation Zrotation
						JOINT leftEye
						{
							OFFSET 4.069050 8.088989 8.043271
							CHANNELS 3 Xrotation Yrotation Zrotation
							End Site
							{
								OFFSET -0.120888 12.031601 -0.001421
							}
						}
						JOINT rightEye
						{
							OFFSET -3.733437 8.010590 8.047970
							CHANNELS 3 Xrotation Yrotation Zrotation
							End Site
							{
								OFFSET -0.120888 12.031601 -0.001421
							}
						}
					}
				}
				JOINT rCollar
				{
					OFFSET -2.878578 19.234863 -4.877462
					CHANNELS 3 Xrotation Yrotation Zrotation
					JOINT rShldr
					{
						OFFSET -8.757317 -2.038666 1.468554
						CHANNELS 3 Xrotation Yrotation Zrotation
						JOINT rForeArm
						{
							OFFSET -28.155289 -1.994415 0.504846
							CHANNELS 3 Xrotation Yrotation Zrotation
							JOINT rHand
							{
								OFFSET -22.590282 0.547089 7.084864
								CHANNELS 3 Xrotation Yrotation Zrotation
								JOINT rThumb1
								{
									OFFSET -1.212181 -0.499710 3.414551
									CHANNELS 3 Xrotation Yrotation Zrotation
									JOINT rThumb2
									{
										OFFSET -3.362855 -0.557907 3.415856
										CHANNELS 3 Xrotation Yrotation Zrotation
										End Site
										{
											OFFSET -0.510060 -3.348877 -3.437004
										}
									}
								}
								JOINT rIndex1
								{
									OFFSET -7.765133 0.860977 5.612883
									CHANNELS 3 Xrotation Yrotation Zrotation
									JOINT rIndex2
									{
										OFFSET -2.530624 -0.909454 1.567014
										CHANNELS 3 Xrotation Yrotation Zrotation
										End Site
										{
											OFFSET -0.482412 -2.439743 -1.871267
										}
									}
								}
								JOINT rMid1
								{
									OFFSET -8.256548 1.099625 3.418589
									CHANNELS 3 Xrotation Yrotation Zrotation
									JOINT rMid2
									{
										OFFSET -3.094923 -0.621109 1.066632
										CHANNELS 3 Xrotation Yrotation Zrotation
										End Site
										{
											OFFSET 0.218893 -3.106033 -1.186045
										}
									}
								}
								JOINT rRing1
								{
									OFFSET -8.832348 0.458145 1.522035
									CHANNELS 3 Xrotation Yrotation Zrotation
									JOINT rRing2
									{
										OFFSET -2.600983 -0.845947 -0.018181
										CHANNELS 3 Xrotation Yrotation Zrotation
										End Site
										{
											OFFSET 0.827684 -2.594421 -0.254866
										}
									}
								}
								JOINT rPinky1
								{
									OFFSET -8.271393 -0.130951 -0.453410
									CHANNELS 3 Xrotation Yrotation Zrotation
									JOINT rPinky2
									{
										OFFSET -1.821169 -0.665802 -0.699812
										CHANNELS 3 Xrotation Yrotation Zrotation
										End Site
										{
											OFFSET 0.357841 -1.838379 0.861397
										}
									}
								}
							}
						}
					}
				}
				JOINT lCollar
				{
					OFFSET 2.485630 19.288757 -4.880692
					CHANNELS 3 Xrotation Yrotation Zrotation
					JOINT lShldr
					{
						OFFSET 8.798275 -1.862259 1.457984
						CHANNELS 3 Xrotation Yrotation Zrotation
						JOINT lForeArm
						{
							OFFSET 28.190269 -1.428268 0.470919
							CHANNELS 3 Xrotation Yrotation Zrotation
							JOINT lHand
							{
								OFFSET 22.583237 1.000992 7.057662
								CHANNELS 3 Xrotation Yrotation Zrotation
								JOINT lThumb1
								{
									OFFSET 1.226089 -0.475220 3.413082
									CHANNELS 3 Xrotation Yrotation Zrotation
									JOINT lThumb2
									{
										OFFSET 3.377510 -0.490189 3.411787
										CHANNELS 3 Xrotation Yrotation Zrotation
										End Site
										{
											OFFSET -0.573105 3.337982 3.437657
										}
									}
								}
								JOINT lIndex1
								{
									OFFSET 7.753014 1.016907 5.603538
									CHANNELS 3 Xrotation Yrotation Zrotation
									JOINT lIndex2
									{
										OFFSET 2.550255 -0.858398 1.563954
										CHANNELS 3 Xrotation Yrotation Zrotation
										End Site
										{
											OFFSET -0.529076 2.429565 1.871859
										}
									}
								}
								JOINT lMid1
								{
									OFFSET 8.236893 1.265350 3.408654
									CHANNELS 3 Xrotation Yrotation Zrotation
									JOINT lMid2
									{
										OFFSET 3.108055 -0.558777 1.062904
										CHANNELS 3 Xrotation Yrotation Zrotation
										End Site
										{
											OFFSET 0.157867 3.109818 1.185818
										}
									}
								}
								JOINT lRing1
								{
									OFFSET 8.823196 0.635529 1.511402
									CHANNELS 3 Xrotation Yrotation Zrotation
									JOINT lRing2
									{
										OFFSET 2.617424 -0.793503 -0.021323
										CHANNELS 3 Xrotation Yrotation Zrotation
										End Site
										{
											OFFSET 0.775696 2.610519 0.253899
										}
									}
								}
								JOINT lPinky1
								{
									OFFSET 8.271812 0.035263 -0.463375
									CHANNELS 3 Xrotation Yrotation Zrotation
									JOINT lPinky2
									{
										OFFSET 1.833321 -0.629074 -0.702007
										CHANNELS 3 Xrotation Yrotation Zrotation
										End Site
										{
											OFFSET 0.319794 1.845169 -0.861799
										}
									}
								}
							}
						}
					}
				}
			}
		}
		JOINT rButtock
		{
			OFFSET -8.778240 4.350838 1.219202
			CHANNELS 3 Xrotation Yrotation Zrotation
			JOINT rThigh
			{
				OFFSET 0.000004 -1.706871 -2.194565
				CHANNELS 3 Xrotation Yrotation Zrotation
				JOINT rShin
				{
					OFFSET 0.527390 -36.660675 3.457856
					CHANNELS 3 Xrotation Yrotation Zrotation
					JOINT rFoot
					{
						OFFSET 1.391357 -45.252586 -3.460052
						CHANNELS 3 Xrotation Yrotation Zrotation
						End Site
						{
							OFFSET -44.881008 -4.278574 -5.393831
						}
					}
				}
			}
		}
		JOINT lButtock
		{
			OFFSET 8.778244 4.350838 1.219201
			CHANNELS 3 Xrotation Yrotation Zrotation
			JOINT lThigh
			{
				OFFSET 0.000004 -1.706871 -2.194566
				CHANNELS 3 Xrotation Yrotation Zrotation
				JOINT lShin
				{
					OFFSET -0.088116 -36.752815 2.337451
					CHANNELS 3 Xrotation Yrotation Zrotation
					JOINT lFoot
					{
						OFFSET -0.842403 -45.337940 -2.338090
						CHANNELS 3 Xrotation Yrotation Zrotation
						End Site
						{
							OFFSET -44.930099 3.741217 5.384667
						}
					}
				}
			}
		}
	}
}
MOTION
Frames: 6
Frame Time: 0.033333
0.000000 0.000000 0.000000 -0.000000 0.000000 -0.000000 0.000000 -0.000000 0.000000 0.000000 0.000000 -0.000000 0.000001 -0.000000 -0.000000 0.000002 0.000000 -0.000000 0.000001 0.000000 -0.000000 0.000001 0.000000 -0.000000 0.000001 0.000000 -0.000000 -0.000003 -0.000000 -0.000000 -0.000001 -0.000002 -0.000000 -0.000001 -0.000002 0.000000 -0.000003 0.000002 -0.000002 0.000001 0.000003 -0.000003 -0.000009 0.000001 -0.000003 -0.000008 -0.000002 -0.000002 -0.000003 0.000006 0.000004 0.000001 -0.000002 -0.000001 0.000001 0.000002 -0.000000 -0.000000 0.000001 0.000000 0.000001 0.000000 -0.000002 -0.000003 0.000001 0.000001 -0.000001 -0.000003 -0.000000 -0.000002 -0.000000 -0.000001 0.000001 0.000000 0.000000 -0.000001 0.000002 -0.000001 -0.000004 0.000003 0.000000 -0.000000 -0.000006 -0.000003 0.000003 0.000001 0.000003 0.000008 0.000003 0.000004 -0.000001 0.000000 0.000001 -0.000002 0.000000 -0.000001 0.000000 0.000002 -0.000001 0.000000 -0.000000 0.000001 0.000000 0.000000 -0.000002 -0.000003 0.000001 -0.000002 -0.000002 0.000000 0.000002 0.000005 -0.000000 -0.000000 0.000001 0.000000 -0.000000 0.000002 -0.000002 -0.000000 0.000000 -0.000002 0.000001 0.000005 -0.000000 -0.000000 0.000001 0.000000 0.000000 0.000000 -0.000000 0.000000 0.000000 -0.000000 -0.000000 
0.000000 0.000000 0.000000 -0.000000 0.000000 -0.000000 -5.702005 -7.691088 -0.472252 4.013623 -2.984410 1.308509 0.660038 -0.824239 0.459624 4.779682 -6.930146 -4.240008 -16.975515 -12.968601 2.722113 0.000004 0.000001 -0.000002 0.000004 -0.000001 -0.000002 -0.000001 -0.000001 -0.000000 19.718042 32.419100 62.714578 4.724447 41.695621 -26.549022 -18.605396 -2.752921 -0.474540 0.000002 -0.000002 -0.000005 -0.000005 -0.000003 -0.000001 -0.000001 0.000003 -0.000001 0.000002 0.000003 0.000001 -0.000000 -0.000003 -0.000000 0.000002 -0.000005 0.000002 0.000001 0.000000 -0.000003 0.000000 -0.000001 -0.000005 -0.000001 -0.000003 -0.000001 -0.000005 0.000001 0.000001 -0.000001 0.000001 -0.000000 3.014162 -11.476840 -74.639105 -0.061484 -22.789619 13.212982 -20.733545 2.634311 0.537879 0.000002 0.000001 -0.000003 0.000003 0.000009 -0.000003 0.000009 -0.000001 -0.000002 0.000001 0.000003 0.000002 0.000002 -0.000001 -0.000005 0.000000 0.000003 0.000001 0.000000 0.000003 -0.000003 0.000001 -0.000004 -0.000002 -0.000000 0.000005 0.000002 -0.000002 -0.000003 0.000001 0.000003 0.000000 0.000000 6.754281 2.895972 -1.948907 9.490083 0.317674 -0.018985 -8.049916 -13.337565 -2.336182 0.000003 0.000000 0.000000 5.483999 -0.790495 -0.197463 13.158553 -0.356082 0.044469 -12.170257 17.001587 4.352093 
0.000000 0.000000 0.000000 -0.000000 0.000000 -0.000000 -7.129476 -9.668742 -0.904905 5.067494 -3.829340 2.197975 0.624192 -1.070195 0.629548 5.731882 -8.470252 -5.664979 -20.020744 -15.729019 3.803936 0.000001 -0.000006 -0.000004 0.000002 -0.000005 -0.000002 -0.000002 0.000001 0.000001 22.502818 40.970439 73.524616 12.431177 53.491323 -40.463571 -23.286220 -3.412166 -0.706233 0.000001 0.000000 -0.000003 -0.000003 0.000000 -0.000002 -0.000004 0.000007 0.000001 -0.000002 0.000000 0.000007 0.000002 0.000002 -0.000003 0.000003 -0.000000 -0.000000 -0.000001 0.000004 -0.000001 0.000000 0.000006 -0.000005 -0.000006 -0.000002 -0.000000 -0.000007 0.000001 -0.000001 0.000001 0.000000 -0.000000 2.350361 -11.966042 -88.922711 0.258004 -26.088510 15.370769 -23.901096 3.016284 0.674511 -0.000001 -0.000008 -0.000003 0.000003 0.000006 -0.000003 0.000008 -0.000005 -0.000002 -0.000001 0.000002 -0.000001 -0.000001 -0.000003 -0.000003 0.000000 0.000004 -0.000001 -0.000000 -0.000004 0.000001 0.000001 0.000003 -0.000003 -0.000002 0.000002 -0.000001 -0.000001 -0.000005 0.000002 0.000005 -0.000001 -0.000000 8.112890 3.583019 -1.870125 11.276567 0.376980 -0.027636 -9.798238 -16.000673 -2.994221 0.000005 -0.000001 -0.000000 6.355669 -0.872491 0.260619 16.136243 -0.431792 0.064750 -14.802806 20.369770 5.633525 
0.000000 0.000000 0.000000 -0.000000 0.000000 -0.000000 -7.142223 -9.747939 -0.965722 5.213093 -4.076083 2.479057 0.513435 -1.148298 0.620190 5.605353 -8.294579 -6.004553 -18.977004 -15.332796 4.673901 0.000005 -0.000000 0.000000 0.000005 -0.000002 0.000002 -0.000000 0.000000 0.000000 27.212297 41.653851 68.617194 17.087974 57.630780 -47.781220 -23.419542 -3.433060 -0.697032 0.000002 -0.000001 -0.000003 -0.000003 -0.000001 -0.000001 -0.000003 0.000002 0.000003 0.000004 0.000006 -0.000001 0.000003 -0.000000 -0.000002 0.000002 -0.000000 0.000001 0.000000 0.000001 -0.000001 0.000000 -0.000002 -0.000005 -0.000004 -0.000003 0.000001 -0.000002 -0.000002 0.000001 -0.000001 0.000000 -0.000000 3.024780 -9.363574 -86.715378 -0.166263 -23.937856 14.033121 -21.595866 2.743501 0.535870 0.000002 -0.000004 -0.000003 0.000002 0.000003 -0.000003 0.000009 -0.000004 0.000003 0.000003 0.000000 0.000001 0.000002 0.000002 -0.000000 0.000001 0.000001 0.000001 -0.000001 -0.000002 0.000001 0.000001 0.000001 -0.000002 -0.000005 0.000001 -0.000002 -0.000001 -0.000003 0.000001 0.000002 -0.000001 0.000000 7.785389 3.586361 -1.576999 11.094512 0.370607 -0.025657 -9.495510 -15.629098 -2.843849 0.000002 -0.000001 0.000000 6.076732 -0.865738 0.461793 15.862868 -0.423863 0.061403 -14.349129 19.952021 5.363802 
0.000000 0.000000 0.000000 -0.000000 0.000000 -0.000000 -7.152674 -9.950343 -0.791560 5.383593 -4.372631 2.193806 0.615540 -1.233562 0.585334 5.429301 -8.189602 -5.987235 -18.355167 -15.125616 4.796468 0.000003 0.000002 0.000002 0.000002 0.000002 0.000002 0.000000 0.000000 -0.000000 30.872537 44.060779 65.711228 25.483123 61.928444 -58.508568 -23.327328 -3.420315 -0.691717 0.000000 -0.000001 -0.000003 -0.000010 0.000002 -0.000003 -0.000003 0.000001 -0.000002 -0.000000 0.000006 0.000004 0.000001 -0.000001 -0.000005 -0.000000 -0.000002 -0.000000 -0.000000 -0.000003 -0.000003 0.000000 -0.000001 -0.000004 -0.000005 -0.000002 -0.000000 -0.000006 -0.000003 -0.000001 0.000000 -0.000001 -0.000003 3.218728 -7.171174 -86.837222 -0.310458 -22.707592 13.258829 -19.946162 2.543279 0.458713 -0.000002 0.000003 -0.000002 -0.000002 0.000001 0.000001 0.000006 0.000002 0.000002 0.000006 0.000006 0.000002 0.000002 0.000003 -0.000001 0.000001 0.000004 0.000000 -0.000003 0.000003 0.000001 0.000002 0.000003 -0.000000 -0.000001 0.000007 0.000000 -0.000002 -0.000003 0.000001 0.000002 -0.000000 0.000000 7.509912 3.597098 -1.972789 11.556011 0.385742 -0.027578 -9.526856 -15.516458 -2.864779 0.000002 -0.000000 0.000000 6.197546 -0.925303 0.052911 15.635505 -0.420452 0.057739 -14.428081 20.116785 5.419457 
0.000000 0.000000 0.000000 -0.000000 0.000000 -0.000000 -7.026317 -10.553703 -0.498852 5.349731 -4.531869 1.481781 0.881362 -1.269115 0.715642 4.807315 -7.851544 -5.669174 -17.307095 -14.446154 4.055587 0.000005 0.000001 0.000000 0.000006 0.000001 -0.000000 -0.000001 -0.000000 -0.000002 34.618728 46.484915 61.852294 34.737966 64.784672 -69.680217 -22.314781 -3.279812 -0.633072 -0.000003 -0.000002 -0.000002 -0.000002 -0.000001 -0.000004 -0.000007 0.000003 0.000002 0.000003 0.000004 0.000002 -0.000000 -0.000000 -0.000002 -0.000001 0.000000 -0.000002 -0.000002 -0.000001 0.000000 0.000002 -0.000004 -0.000004 -0.000005 -0.000003 0.000001 -0.000007 0.000003 -0.000003 -0.000001 0.000003 -0.000001 3.186492 -5.708040 -86.849455 -0.442868 -21.432982 12.470345 -19.183841 2.450008 0.425410 0.000001 -0.000006 -0.000003 0.000002 0.000001 0.000001 0.000006 -0.000004 -0.000000 -0.000003 -0.000002 -0.000000 0.000002 -0.000002 -0.000002 -0.000000 0.000002 -0.000001 0.000001 -0.000004 -0.000001 0.000001 0.000001 -0.000002 -0.000000 0.000002 -0.000001 0.000003 -0.000003 0.000001 0.000002 0.000001 -0.000000 6.986899 3.615451 -2.839698 12.160183 0.407495 -0.030660 -9.819010 -14.894416 -2.880249 0.000002 0.000001 -0.000000 6.359742 -0.746203 -0.804922 15.145142 -0.411081 0.049611 -14.388442 20.543577 5.488042 
